<svg width="249" height="9" viewBox="0 0 249 9" fill="none" xmlns="http://www.w3.org/2000/svg">
<g clip-path="url(#clip0_4973_14093)">
<path d="M191.913 5.63591C190.966 5.59255 190.124 5.50583 189.176 5.50583C188.439 5.50583 187.913 5.37575 187.281 5.15901C186.86 5.24571 186.439 5.33245 185.912 5.41911C184.754 5.63591 183.596 5.63591 182.438 5.59255C182.332 5.59255 182.122 5.50583 182.017 5.46247C181.911 5.41911 182.122 5.28907 182.332 5.24571C182.438 5.20237 182.648 5.20237 182.859 5.15901C182.964 5.15901 183.175 5.11566 183.28 5.07231C183.175 4.9856 183.069 4.89889 183.069 4.81218C183.069 4.68213 183.28 4.55207 182.964 4.42201C182.754 4.33531 182.332 4.2486 182.017 4.2486C180.964 4.2486 180.016 4.20525 178.963 4.2486C177.489 4.29195 176.121 4.37865 174.752 4.16189C174.436 4.11854 173.91 4.16189 173.488 4.16189C172.646 4.2486 171.804 4.20525 171.067 4.03183C170.33 3.85842 169.698 3.90177 168.961 4.07518C167.908 4.29195 166.855 4.3353 165.803 4.11854C165.171 3.98848 164.539 3.98848 163.802 4.03183C163.276 4.07518 162.855 4.07518 162.328 4.11854C162.223 4.11854 162.118 4.20525 162.012 4.2486C161.907 4.29195 162.118 4.46536 162.328 4.50871C162.644 4.55207 162.96 4.63877 163.276 4.63877C164.644 4.72548 166.013 4.68213 167.277 4.59542C169.277 4.46536 171.277 4.42201 173.278 4.50871C173.699 4.50871 174.12 4.55207 174.541 4.50871C176.436 4.46536 178.332 4.63877 180.332 4.68213C180.437 4.68213 180.543 4.76884 180.543 4.81218C180.437 4.81218 180.437 4.85554 180.332 4.85554C179.279 4.89889 178.121 4.89889 177.068 4.94224C176.858 4.94224 176.752 4.9856 176.858 5.07231C176.858 5.11566 176.963 5.15901 177.068 5.15901C177.595 5.15901 178.016 5.15901 178.542 5.15901C178.647 5.15901 178.858 5.24571 178.963 5.28907C179.069 5.33245 178.858 5.50583 178.647 5.54919C178.437 5.59255 178.121 5.63591 177.91 5.63591C177.7 5.63591 177.384 5.63591 177.173 5.59255C176.752 5.54919 176.331 5.50583 175.91 5.46247C175.699 5.46247 175.384 5.41911 175.173 5.41911C174.331 5.41911 173.488 5.46247 172.646 5.46247C171.909 5.46247 171.172 5.24571 170.435 5.33245C169.593 5.41911 168.961 5.20236 168.224 5.11566C168.014 5.20236 167.698 5.28907 167.487 5.37575C166.855 5.63591 166.224 5.63591 165.381 5.50583C165.066 5.33245 164.855 5.15901 164.539 4.9856C164.329 4.89889 163.802 4.85554 163.592 4.94224C163.381 4.9856 163.381 5.11566 163.381 5.20236C163.276 5.37575 163.065 5.46247 162.749 5.37575C162.328 5.28907 161.907 5.15901 161.486 5.07231C161.275 5.02895 160.959 5.02895 160.959 5.15901C160.854 5.37575 160.644 5.46247 160.222 5.50583C158.959 5.63591 157.801 5.72262 156.537 5.59255C156.222 5.54919 155.906 5.54919 155.59 5.50583C154.326 5.37575 153.063 5.28907 151.694 5.50583C150.852 5.63591 150.01 5.50583 149.378 5.28907C149.167 5.24571 148.957 5.15901 148.852 5.07231C148.746 5.11566 148.746 5.20236 148.641 5.24571C148.325 5.41911 147.904 5.46247 147.588 5.37575C147.272 5.28907 146.956 5.15901 146.535 5.07231C146.325 5.02895 146.114 4.9856 145.904 4.94224C145.798 4.94224 145.693 4.94224 145.693 4.94224C145.588 4.9856 145.377 5.02895 145.482 5.11566C145.482 5.20236 145.588 5.33245 145.693 5.41911C145.798 5.54919 146.114 5.67927 145.798 5.76593C145.693 5.80929 145.377 5.80929 145.061 5.80929C144.219 5.80929 143.587 5.67927 143.377 5.28907C143.377 5.20237 143.271 5.15901 143.166 5.11566C142.956 4.9856 142.534 4.94224 142.324 5.07231C142.219 5.11566 142.219 5.20236 142.113 5.24571C141.903 5.41911 141.587 5.50583 141.166 5.50583C139.692 5.46247 138.112 5.54919 136.638 5.63591C136.112 5.67927 135.586 5.63591 135.164 5.63591C134.638 5.63591 134.112 5.59255 133.69 5.63591C132.953 5.72262 132.216 5.67926 131.479 5.59255C130.848 5.50583 130.216 5.59255 129.689 5.85265C129.584 5.93937 129.268 5.98272 129.058 6.02608C128.215 6.06944 127.373 6.06944 126.636 5.85265C125.373 5.63591 124.109 5.67927 122.741 5.76593C122.004 5.80929 121.267 5.76593 120.635 5.59255C120.53 5.54919 120.319 5.50583 120.214 5.50583C120.108 5.50583 120.108 5.46247 120.003 5.46247C119.898 5.46247 119.898 5.50583 119.898 5.50583C120.003 5.54919 120.108 5.54919 120.214 5.59255C120.319 5.59255 120.53 5.59255 120.635 5.59255C120.53 5.63591 120.424 5.72262 120.424 5.76593C120.214 5.89601 120.003 6.02608 119.582 5.98272C118.95 5.89601 118.424 5.89601 117.897 6.02608C116.423 6.32954 114.739 6.32954 113.16 6.24282C112.212 6.19946 111.37 6.15611 110.422 6.28618C109.79 6.3729 109.053 6.3729 108.422 6.32954C107.264 6.24282 106.105 6.28618 104.947 6.41626C104.21 6.50298 103.473 6.54628 102.736 6.45962C101.157 6.28618 99.5777 6.3729 97.9985 6.50298C96.2086 6.67636 94.524 6.71972 92.7342 6.58964C91.9972 6.54628 91.3654 6.58964 90.839 6.80644C90.3126 7.02318 89.6809 7.06654 88.9439 7.06654C88.5227 7.06654 88.1016 7.10989 87.6804 7.06654C86.2064 6.93646 84.7324 7.02318 83.1532 7.10989C81.3633 7.23997 79.6787 7.15325 77.8889 7.28333C77.0466 7.32664 76.4149 7.23997 75.9937 6.89315C75.8884 6.76308 75.362 6.76308 75.1514 6.89315C75.0461 6.93646 74.9408 6.97982 74.8356 7.02318C74.5197 7.19661 74.3091 7.36999 73.6774 7.36999C73.0457 7.36999 72.3087 7.36999 71.7823 7.15325C71.677 7.10989 71.4664 7.10989 71.2558 7.10989C71.0453 7.19661 70.8347 7.28333 70.6241 7.36999C70.3083 7.50007 69.9924 7.58679 69.5713 7.58679C68.6237 7.67351 67.5708 7.80353 66.6233 7.84689C65.3598 7.93361 64.0964 7.97697 62.833 7.97697C60.9378 7.93361 59.0427 8.06368 57.0423 8.19371C55.0418 8.32378 53.0414 8.4105 51.041 8.49716C50.5145 8.54052 49.9881 8.49716 49.5669 8.49716C49.0405 8.49716 48.6194 8.4105 48.1982 8.28042C47.5665 8.10699 47.0401 8.15035 46.5137 8.45386C46.3031 8.62724 45.9872 8.71396 45.4608 8.71396C45.2502 8.71396 44.9344 8.71396 44.7238 8.71396C44.5132 8.71396 44.408 8.71396 44.1974 8.6706C44.1974 8.62724 44.0921 8.62724 44.0921 8.58388C44.0921 8.4105 43.8815 8.32378 43.4604 8.32378C42.6181 8.36714 41.7758 8.4105 40.9335 8.45386C40.6177 8.45386 40.3018 8.4105 39.9859 8.4105C39.9859 8.4105 39.8807 8.36714 39.8807 8.32378C39.8807 8.28042 39.8807 8.23707 39.9859 8.23707C40.1965 8.19371 40.4071 8.15035 40.7229 8.10699C41.8811 8.06368 43.0392 7.93361 44.1974 7.84689C48.1982 7.50007 52.3044 7.15325 56.4105 7.15325C57.9898 7.15325 59.3585 6.93646 60.9378 6.89315C61.8854 6.84979 62.7277 6.80644 63.6753 6.76308C65.2546 6.67636 66.8338 6.633 68.4131 6.54628C68.8343 6.54628 69.1501 6.32954 69.0448 6.15611C68.9396 5.93936 68.8343 5.76593 68.6237 5.54919C68.3078 5.24571 67.5708 5.11565 66.8338 5.02895C66.6233 5.02895 66.3074 5.02895 66.0968 5.0723C64.8334 5.28907 63.57 5.41911 62.2013 5.50583C59.0427 5.72262 55.7788 5.72257 52.7255 5.98272C51.2515 5.98272 49.6722 6.15611 48.1982 6.06944C47.7771 6.06944 47.356 6.1128 47.0401 6.15611C45.7767 6.41626 44.3027 6.45962 42.9339 6.58964C42.6181 6.633 42.3022 6.633 41.8811 6.58964C40.8282 6.58964 39.8807 6.54628 38.8278 6.54628C37.4591 6.54628 36.4062 6.32954 35.7745 5.76593C35.6692 5.63591 35.4587 5.54919 35.2481 5.41911C34.4058 5.28907 33.5635 5.37575 32.7212 5.20236C32.5106 5.15901 32.0895 5.15901 31.7736 5.20236C30.8261 5.28907 29.7732 5.37575 28.8256 5.50583C27.7728 5.63591 26.7199 5.63591 25.5618 5.63591C21.4556 5.59255 17.3495 5.54919 13.2433 5.76593C11.5588 5.85265 9.87418 5.85265 8.1896 5.89601C6.82089 5.93936 5.97861 5.63591 5.24161 5.24571C4.71518 4.98559 4.29403 4.68212 3.87289 4.37865C3.34646 4.20524 2.71474 4.24859 2.18831 4.20524C1.24074 4.11853 0.503753 3.85842 0.0826093 3.55495C-0.127962 3.42489 0.082603 3.20812 0.503747 3.12142C1.13546 2.99136 1.76717 2.99136 2.50417 2.99136C3.13589 2.99136 3.87288 3.03471 4.5046 3.07806C5.13631 3.12142 5.66274 3.03471 5.87332 2.73124C5.9786 2.55783 6.39976 2.47112 6.8209 2.47112C7.66319 2.47112 8.50547 2.42777 9.34775 2.47112C10.4006 2.51447 11.3482 2.47112 12.401 2.51447C12.7169 2.42777 12.9275 2.34106 13.1381 2.211C13.4539 2.03759 13.875 1.95088 14.4015 1.90753C16.7178 1.60406 19.1393 1.3873 21.5609 1.34394C23.4561 1.30059 25.2459 1.21388 27.1411 1.30059C30.0891 1.21388 33.0371 1.25724 35.9851 1.12718C36.8274 1.08382 37.6696 1.08382 38.5119 1.08382C40.0912 1.08382 41.6705 1.12718 43.3551 1.08382C44.6185 1.08382 45.8819 0.997121 47.1454 0.953767C47.7771 0.953767 48.3035 0.910414 48.9352 0.953767C50.8304 1.04047 52.8308 1.08382 54.726 1.04047C55.6735 1.04047 56.6211 1.08382 57.4634 1.04047C59.885 0.910414 62.3066 0.953767 64.7281 0.953767C65.3598 0.953767 66.0968 0.997121 66.7286 0.910414C68.4131 0.693646 70.0977 0.736999 71.7823 0.780353C72.9404 0.823707 74.0986 0.823707 75.362 0.736999C75.9937 0.693646 76.7307 0.693646 77.3624 0.693646C78.6259 0.693646 79.8893 0.693646 81.1527 0.520236C82.1003 0.390177 83.1532 0.390177 84.206 0.43353C85.1536 0.476883 85.9959 0.433529 86.9434 0.390176C87.891 0.30347 88.9439 0.260118 89.9967 0.303471C91.4707 0.346824 93.05 0.303471 94.524 0.216765C96.5244 0.130059 98.5249 0.086706 100.525 0.130059C103.052 0.173412 105.579 0.130059 108.106 0C108.527 7.58006e-09 108.948 1.51601e-08 109.369 2.27402e-08C109.58 2.65302e-08 109.685 0.0433531 109.896 0.0433531C111.054 0.0433531 112.212 7.39059e-08 113.37 9.47509e-08C114.528 0.0433531 115.686 0.086706 116.845 0.0433532C117.266 1.73555e-07 117.687 0.0433532 118.108 0.086706C119.056 0.216765 119.898 0.0433532 120.845 0.086706C121.688 0.13006 122.53 0.216766 123.372 0.13006C125.373 3.15554e-07 127.373 0.13006 129.374 0.13006C130.637 0.13006 131.901 0.173413 133.164 0.173413C133.69 0.173413 134.217 0.173413 134.638 0.216766C135.48 0.260119 136.323 0.303472 137.165 0.216766C137.691 0.173413 138.323 0.173413 138.955 0.216766C140.008 0.303472 141.166 0.216766 142.219 0.303472C143.271 0.390178 144.43 0.303472 145.482 0.346825C147.378 0.390178 149.378 0.476884 151.273 0.520237C153.379 0.606944 155.485 0.563591 157.59 0.693651C158.959 0.563591 160.433 0.780353 161.907 0.650298C162.223 0.606944 162.539 0.650298 162.855 0.693651C165.066 0.780353 167.171 0.86706 169.382 0.910414C169.698 0.910414 170.014 0.910414 170.435 0.910414C171.909 0.823707 173.278 0.823707 174.647 0.953767C174.962 0.997121 175.278 0.997121 175.699 0.997121C180.332 1.08383 184.965 1.30059 189.597 1.25724C190.439 1.25724 191.282 1.30059 192.124 1.34394C192.756 1.34394 193.282 1.3873 193.914 1.3873C195.072 1.34394 196.125 1.474 197.072 1.64742C197.283 1.90753 197.809 1.99424 198.231 2.03759C199.705 2.1243 201.284 2.211 202.758 2.25436C205.285 2.29771 207.812 2.34106 210.338 2.38442C211.707 2.42777 212.971 2.51448 214.339 2.60118C216.971 2.73124 219.498 2.73124 222.13 2.73124C223.499 2.73124 224.868 2.73124 226.131 2.73124C226.763 2.73124 227.29 2.77459 227.816 2.94801C228.658 3.25148 229.816 3.33818 230.869 3.38154C232.449 3.42489 234.028 3.5116 235.607 3.55495C236.344 3.5983 237.081 3.64165 237.818 3.55495C239.924 3.38154 242.03 3.5116 244.135 3.5983C245.083 3.64165 245.925 3.68501 246.873 3.64165C247.399 3.64165 247.82 3.68501 248.347 3.72836C248.557 3.72836 248.768 3.90178 248.663 3.94513C248.557 3.98848 248.452 4.07518 248.347 4.07518C247.399 4.16189 246.346 4.16189 245.399 4.07518C245.083 4.03183 244.767 4.03183 244.451 4.03183C244.241 4.03183 243.925 4.11854 243.819 4.16189C243.504 4.37866 243.293 4.59542 243.082 4.85554C242.661 4.94224 242.345 5.02895 241.924 5.07231C241.293 5.20237 240.766 5.33245 240.556 5.63591C240.345 5.80929 239.924 5.89601 239.503 5.85265C236.765 5.76593 233.923 5.80929 231.185 5.89601C230.659 5.89601 230.027 5.80929 229.501 5.76593C228.974 5.72262 228.342 5.63591 227.816 5.59255C227.29 5.72262 226.763 5.80929 226.131 5.72262C225.605 5.63591 224.973 5.63591 224.447 5.72262C223.815 5.80929 223.289 5.72262 222.762 5.59255C222.552 5.54919 222.236 5.50583 222.025 5.50583C221.183 5.67927 220.446 5.46247 219.604 5.37575C219.077 5.33245 218.656 5.24572 218.13 5.20237C217.498 5.15901 216.971 5.20237 216.445 5.33245C216.129 5.37575 215.813 5.41911 215.497 5.46247C214.023 5.80929 212.444 5.76593 210.865 5.59255C210.023 5.50583 209.18 5.33245 208.338 5.15901C207.917 5.0723 207.601 4.9856 207.496 4.81218C207.285 4.55207 206.864 4.50871 206.338 4.50871C205.811 4.50871 205.285 4.50871 204.864 4.50871C203.811 4.50871 202.863 4.55207 201.81 4.55207C200.968 4.55207 200.126 4.55207 199.283 4.42201C198.546 4.29195 197.809 4.33531 197.072 4.37865C196.125 4.46536 195.072 4.55207 194.124 4.42201C193.809 4.37865 193.493 4.42201 193.177 4.42201C192.124 4.46536 190.966 4.46536 189.913 4.29195C189.597 4.2486 189.281 4.20525 188.965 4.2486C187.702 4.33531 186.439 4.37865 185.175 4.37865C185.07 4.37865 184.859 4.42201 184.754 4.46536C184.649 4.50871 184.649 4.59542 184.649 4.63877C184.649 4.68213 184.754 4.68213 184.754 4.72548C184.859 4.72548 184.859 4.76883 184.965 4.76883C186.544 4.63877 188.123 4.72548 189.702 4.89889C190.545 5.11566 191.387 5.33245 191.913 5.63591ZM114.634 4.59542L114.739 4.55207V4.50871C114.739 4.50871 114.739 4.59542 114.634 4.59542C114.107 4.59542 113.475 4.63878 112.949 4.72548C111.159 5.02895 109.369 5.02895 107.579 4.89889C105.79 4.76883 104.105 4.85554 102.526 5.20236C102.21 5.24571 101.894 5.24571 101.578 5.20236C101.368 5.15901 101.052 5.15901 100.841 5.20236C100.736 5.20236 100.631 5.28907 100.525 5.33239C100.525 5.37575 100.631 5.46247 100.736 5.50583C101.052 5.54919 101.368 5.54919 101.683 5.54919C102.105 5.50583 102.315 5.33245 102.42 5.20236C103.052 5.33245 103.789 5.46247 104.631 5.41911C106 5.41911 107.369 5.41911 108.632 5.37575C109.159 5.37575 109.685 5.37575 110.106 5.33239C111.159 5.20236 112.317 5.20236 113.37 5.33239C114.423 5.46247 115.581 5.41911 116.634 5.28907C117.897 5.11566 119.266 5.07231 120.635 5.11566C121.688 5.15901 122.635 5.15901 123.688 5.07231C125.478 4.94224 127.373 4.89889 129.163 5.11566C129.69 5.20236 130.321 5.20236 130.953 5.11566C131.9 4.94224 132.953 4.81218 134.006 4.68213C134.111 4.68213 134.112 4.55207 134.112 4.50871C133.901 4.42201 133.69 4.29195 133.375 4.2486C132.953 4.20525 132.532 4.16189 132.111 4.16189C130.637 4.11854 129.058 4.07518 127.689 4.42201C127.057 4.59542 126.215 4.59542 125.478 4.46536C124.32 4.29195 123.162 4.3353 122.004 4.37865C121.372 4.42201 120.845 4.46536 120.214 4.50871C119.371 4.55207 118.529 4.55207 117.792 4.37865C117.371 4.29195 116.95 4.37865 116.634 4.50871C116.002 4.63878 115.265 4.76883 114.634 4.59542ZM135.901 4.63877C135.901 4.68213 135.901 4.72548 136.007 4.72548C136.217 4.85554 136.533 4.89889 136.849 4.89889C137.902 4.89889 138.849 4.85554 139.902 4.81218C141.692 4.76883 143.377 4.72548 145.167 4.72548C146.851 4.72548 148.536 4.72548 150.22 4.72548C150.957 4.72548 151.484 4.81218 151.8 5.07231C151.905 5.15901 152.537 5.11566 152.642 5.02895C153.063 4.72548 152.852 4.3353 152.115 4.2486C151.273 4.11854 150.326 4.07518 149.378 4.11854C147.272 4.20524 145.167 4.20524 143.061 4.16189C142.429 4.16189 141.903 4.16189 141.271 4.20525C140.429 4.2486 139.797 4.20524 139.06 4.07518C138.639 3.98848 138.428 4.07518 138.323 4.3353C138.218 4.55207 137.902 4.63877 137.481 4.55207C137.27 4.50871 137.06 4.42201 136.849 4.37865C136.533 4.24859 135.901 4.46536 135.901 4.63877ZM158.538 4.20525C157.906 4.20525 157.485 4.20525 157.064 4.2486C156.853 4.2486 156.643 4.29195 156.432 4.37865C156.222 4.42201 156.116 4.50871 156.116 4.63877C156.116 4.72548 156.432 4.81218 156.643 4.81218C157.59 4.72548 158.538 4.63877 159.485 4.55207C159.591 4.55207 159.591 4.50871 159.696 4.50871C159.696 4.46536 159.801 4.46536 159.801 4.42201C159.801 4.37865 159.801 4.3353 159.696 4.3353C159.275 4.2486 158.748 4.20525 158.538 4.20525ZM216.866 4.85554C217.393 4.85554 217.919 4.85554 218.445 4.81219C218.445 4.81219 218.551 4.76884 218.551 4.72548C218.551 4.68213 218.445 4.63877 218.445 4.63877C217.603 4.55207 216.656 4.59542 215.813 4.68213C215.603 4.68213 215.603 4.76884 215.708 4.81219C215.708 4.85554 215.813 4.85554 215.919 4.85554C216.129 4.89889 216.55 4.85554 216.866 4.85554ZM109.159 3.64165C110.106 3.77172 110.633 3.81506 111.054 3.85842L111.264 3.81506C111.264 3.77171 111.264 3.72836 111.159 3.72836C110.633 3.5983 110.212 3.5983 109.159 3.64165ZM213.076 5.37575C213.286 5.33245 213.497 5.28907 213.602 5.20237C213.708 5.15901 213.708 5.07231 213.708 5.02895C213.602 5.02895 213.392 4.9856 213.286 5.02895C213.076 5.07231 212.971 5.15901 212.76 5.24572C212.76 5.24572 212.76 5.28907 212.76 5.33245C212.865 5.33245 212.971 5.33245 213.076 5.37575ZM61.2537 4.89889C61.4643 4.85554 61.4643 4.81218 61.359 4.76883C61.359 4.72548 61.2537 4.72548 61.1484 4.72548C60.9378 4.72548 60.8325 4.76883 60.8325 4.81218C60.9378 4.89889 61.1484 4.94224 61.2537 4.89889ZM132.638 5.50583C132.743 5.50583 132.848 5.50583 132.848 5.50583C132.953 5.46247 133.059 5.41911 133.164 5.37575C133.059 5.33245 132.848 5.28907 132.743 5.28907C132.637 5.28907 132.427 5.33245 132.322 5.37575C132.427 5.37575 132.532 5.41911 132.638 5.50583ZM175.068 5.15901L174.857 5.11566V5.20236L175.068 5.15901ZM68.2025 7.32664C68.3078 7.32664 68.4131 7.32664 68.4131 7.28333C68.4131 7.19661 68.3078 7.19661 68.2025 7.23997C68.0973 7.23997 68.0973 7.28333 68.2025 7.32664ZM115.476 5.93936C115.265 5.89601 115.265 5.93937 115.265 5.98272C115.265 5.98272 115.371 5.98272 115.476 5.98272V5.93936ZM154.116 4.3353C154.326 4.37865 154.432 4.3353 154.326 4.2486C154.326 4.2486 154.221 4.2486 154.116 4.2486C154.116 4.2486 154.116 4.29195 154.116 4.3353ZM89.7862 5.98272L89.6809 5.93936C89.5756 5.93936 89.5756 5.93937 89.4703 5.98272L89.5756 6.02608C89.6809 5.98272 89.6809 5.98272 89.7862 5.98272ZM194.124 2.03759C194.23 2.03759 194.335 2.03759 194.335 2.03759C194.335 2.03759 194.335 1.99424 194.335 1.95089C194.23 1.95089 194.124 1.95089 194.124 1.95089C194.019 1.99424 194.124 2.03759 194.124 2.03759Z" fill="url(#paint0_linear_4973_14093)"/>
<path d="M196.967 5.20257C195.598 5.02916 194.124 5.02916 192.756 4.98581C192.65 4.98581 192.545 4.8991 192.44 4.85575C192.545 4.85575 192.545 4.81239 192.65 4.81239C194.756 4.72569 196.757 4.76904 198.862 4.94245C199.705 5.02916 200.442 5.20257 200.968 5.41932V5.50604C200.968 5.5494 200.863 5.5494 200.757 5.5494C199.81 5.59276 198.757 5.63612 197.915 5.37596C197.599 5.11587 197.599 5.11587 196.967 5.20257Z" fill="url(#paint1_linear_4973_14093)"/>
<path d="M204.864 5.02881C205.179 5.02881 205.285 5.07216 205.495 5.07216C205.706 5.07216 206.022 5.20222 205.916 5.28892C205.811 5.37561 205.706 5.50569 205.495 5.54905C204.969 5.63576 204.548 5.5924 204.021 5.54905C203.811 5.50569 203.495 5.37561 203.6 5.28892C203.705 5.24558 203.811 5.15887 203.916 5.15887C204.337 5.07216 204.653 5.02881 204.864 5.02881Z" fill="url(#paint2_linear_4973_14093)"/>
<path d="M192.545 5.67941C192.65 5.50598 192.756 5.33259 193.177 5.28921C193.493 5.24587 193.809 5.24587 194.124 5.33259C194.23 5.3759 194.23 5.46262 194.335 5.50598C194.335 5.50598 194.23 5.54933 194.23 5.59269C194.124 5.63605 193.914 5.63605 193.809 5.67941C193.282 5.63605 192.861 5.63605 192.545 5.67941Z" fill="url(#paint3_linear_4973_14093)"/>
<path d="M38.1961 8.714C38.0908 8.75736 38.0908 8.84407 37.9855 8.88738C37.5644 9.01746 37.0379 9.01746 36.6168 8.9741C36.4062 8.93074 36.3009 8.88738 36.4062 8.84407C36.8274 8.58392 37.4591 8.54056 38.0908 8.67064C38.1961 8.67064 38.1961 8.714 38.1961 8.714Z" fill="url(#paint4_linear_4973_14093)"/>
<path d="M198.02 5.419C197.809 5.46236 197.704 5.54908 197.494 5.59244C197.178 5.6358 196.967 5.54908 196.967 5.419C196.967 5.37564 197.072 5.28896 197.072 5.24561C197.283 5.28896 197.704 5.37564 198.02 5.419Z" fill="url(#paint5_linear_4973_14093)"/>
<path d="M191.808 5.67949C192.019 5.67949 192.229 5.67949 192.44 5.67949C192.335 5.63613 192.124 5.63613 191.808 5.67949Z" fill="url(#paint6_linear_4973_14093)"/>
</g>
<defs>
<linearGradient id="paint0_linear_4973_14093" x1="-3" y1="9" x2="-1.12022" y2="29.8661" gradientUnits="userSpaceOnUse">
<stop stop-color="#533AF1"/>
<stop offset="1" stop-color="#F151FF"/>
</linearGradient>
<linearGradient id="paint1_linear_4973_14093" x1="-3.00007" y1="9.00021" x2="-1.12029" y2="29.8663" gradientUnits="userSpaceOnUse">
<stop stop-color="#533AF1"/>
<stop offset="1" stop-color="#F151FF"/>
</linearGradient>
<linearGradient id="paint2_linear_4973_14093" x1="-2.99948" y1="8.99986" x2="-1.1197" y2="29.866" gradientUnits="userSpaceOnUse">
<stop stop-color="#533AF1"/>
<stop offset="1" stop-color="#F151FF"/>
</linearGradient>
<linearGradient id="paint3_linear_4973_14093" x1="-3.00089" y1="9.00015" x2="-1.12112" y2="29.8663" gradientUnits="userSpaceOnUse">
<stop stop-color="#533AF1"/>
<stop offset="1" stop-color="#F151FF"/>
</linearGradient>
<linearGradient id="paint4_linear_4973_14093" x1="-2.99999" y1="9.00004" x2="-1.1202" y2="29.8662" gradientUnits="userSpaceOnUse">
<stop stop-color="#533AF1"/>
<stop offset="1" stop-color="#F151FF"/>
</linearGradient>
<linearGradient id="paint5_linear_4973_14093" x1="-3.00168" y1="8.99989" x2="-1.12192" y2="29.866" gradientUnits="userSpaceOnUse">
<stop stop-color="#533AF1"/>
<stop offset="1" stop-color="#F151FF"/>
</linearGradient>
<linearGradient id="paint6_linear_4973_14093" x1="-3.00119" y1="9.00023" x2="-1.12142" y2="29.8664" gradientUnits="userSpaceOnUse">
<stop stop-color="#533AF1"/>
<stop offset="1" stop-color="#F151FF"/>
</linearGradient>
<clipPath id="clip0_4973_14093">
<rect width="249" height="9" fill="white"/>
</clipPath>
</defs>
</svg>
